<svg width="450" height="172" viewBox="0 0 450 172" fill="none" xmlns="http://www.w3.org/2000/svg">
<path d="M88.5918 88.1543C88.5918 102.92 85.252 114.727 78.5723 123.574C71.9512 132.363 62.9863 136.758 51.6777 136.758C42.9473 136.758 35.7695 133.564 30.1445 127.178V171.562H0.525391V39.9023H28.2109L29.0898 48.6914C34.7734 41.6602 42.2441 38.1445 51.502 38.1445C63.2207 38.1445 72.332 42.4805 78.8359 51.1523C85.3398 59.7656 88.5918 71.6309 88.5918 86.748V88.1543ZM58.9727 86.3086C58.9727 69.4336 54.0508 60.9961 44.207 60.9961C37.1758 60.9961 32.4883 63.5156 30.1445 68.5547V105.996C32.7227 111.27 37.4688 113.906 44.3828 113.906C53.8164 113.906 58.6797 105.762 58.9727 89.4727V86.3086ZM127.577 135H97.8695V39.9023H127.577V135ZM96.1117 15.3809C96.1117 11.1621 97.6352 7.70508 100.682 5.00977C103.729 2.31445 107.684 0.966797 112.547 0.966797C117.411 0.966797 121.366 2.31445 124.412 5.00977C127.459 7.70508 128.983 11.1621 128.983 15.3809C128.983 19.5996 127.459 23.0566 124.412 25.752C121.366 28.4473 117.411 29.7949 112.547 29.7949C107.684 29.7949 103.729 28.4473 100.682 25.752C97.6352 23.0566 96.1117 19.5996 96.1117 15.3809ZM167.704 39.9023L168.671 51.0645C175.233 42.4512 184.286 38.1445 195.829 38.1445C205.731 38.1445 213.114 41.1035 217.977 47.0215C222.899 52.9395 225.448 61.8457 225.624 73.7402V135H195.917V74.9707C195.917 70.166 194.95 66.6504 193.016 64.4238C191.083 62.1387 187.567 60.9961 182.47 60.9961C176.669 60.9961 172.362 63.2812 169.55 67.8516V135H139.93V39.9023H167.704ZM286.493 108.281C286.493 105.762 285.175 103.74 282.538 102.217C279.902 100.693 274.892 99.1113 267.509 97.4707C260.126 95.8301 254.032 93.6914 249.228 91.0547C244.423 88.3594 240.761 85.1074 238.241 81.2988C235.722 77.4902 234.462 73.125 234.462 68.2031C234.462 59.4727 238.066 52.2949 245.273 46.6699C252.48 40.9863 261.913 38.1445 273.573 38.1445C286.113 38.1445 296.191 40.9863 303.808 46.6699C311.425 52.3535 315.234 59.8242 315.234 69.082H285.527C285.527 61.4648 281.513 57.6562 273.486 57.6562C270.38 57.6562 267.773 58.5352 265.663 60.293C263.554 61.9922 262.499 64.1309 262.499 66.709C262.499 69.3457 263.788 71.4844 266.366 73.125C268.945 74.7656 273.046 76.1133 278.671 77.168C284.355 78.2227 289.335 79.4824 293.613 80.9473C307.909 85.8691 315.058 94.6875 315.058 107.402C315.058 116.074 311.191 123.135 303.456 128.584C295.78 134.033 285.82 136.758 273.573 136.758C265.429 136.758 258.163 135.293 251.777 132.363C245.39 129.434 240.409 125.449 236.835 120.41C233.261 115.371 231.474 110.068 231.474 104.502H259.159C259.277 108.896 260.741 112.119 263.554 114.17C266.366 116.162 269.97 117.158 274.364 117.158C278.407 117.158 281.425 116.338 283.417 114.697C285.468 113.057 286.493 110.918 286.493 108.281ZM359.052 97.207H353.427V135H323.72V0H353.427V74.7949H358.349L377.597 39.9023H411.699L382.959 82.9688L414.423 135H380.498L359.052 97.207ZM447.871 135H418.164V39.9023H447.871V135ZM416.406 15.3809C416.406 11.1621 417.93 7.70508 420.977 5.00977C424.023 2.31445 427.979 0.966797 432.842 0.966797C437.705 0.966797 441.66 2.31445 444.707 5.00977C447.754 7.70508 449.277 11.1621 449.277 15.3809C449.277 19.5996 447.754 23.0566 444.707 25.752C441.66 28.4473 437.705 29.7949 432.842 29.7949C427.979 29.7949 424.023 28.4473 420.977 25.752C417.93 23.0566 416.406 19.5996 416.406 15.3809Z" fill="#F2F2F2"/>
</svg>
