<svg width="94" height="94" viewBox="0 0 94 94" fill="none" xmlns="http://www.w3.org/2000/svg">
<g filter="url(#filter0_dd)">
<rect x="12.6533" y="13" width="68.3168" height="68.3168" rx="12.0511" fill="#F0F1F5"/>
</g>
<path d="M57.4808 39.5277C57.4225 39.3867 57.336 39.2545 57.2214 39.1399L53.6348 35.5533C53.1679 35.0864 52.4109 35.0864 51.944 35.5533C51.4771 36.0202 51.4771 36.7772 51.944 37.244L53.4897 38.7898L42.0295 38.7898C38.7281 38.7898 36.0518 41.4661 36.0518 44.7675V47.1586C36.0518 47.8188 36.587 48.3541 37.2473 48.3541C37.9076 48.3541 38.4428 47.8189 38.4428 47.1586L38.4428 44.7675C38.4428 42.7866 40.0486 41.1808 42.0295 41.1808L53.4897 41.1808L51.944 42.7266C51.4771 43.1934 51.4771 43.9504 51.944 44.4173C52.4109 44.8842 53.1679 44.8842 53.6348 44.4173L57.2205 40.8316C57.2234 40.8287 57.2263 40.8258 57.2292 40.8228C57.4574 40.5904 57.5716 40.2879 57.5716 39.9853" fill="#623BE4"/>
<path d="M57.4808 39.5277C57.5389 39.6676 57.5711 39.8209 57.5716 39.9817Z" fill="#623BE4"/>
<path d="M36.1425 53.8742C36.084 54.0152 36.0518 54.1697 36.0518 54.3318C36.0518 54.662 36.1856 54.9609 36.4019 55.1772L39.9886 58.7638C40.4554 59.2307 41.2124 59.2307 41.6793 58.7638C42.1462 58.297 42.1462 57.54 41.6793 57.0731L40.1336 55.5274L51.5938 55.5274C54.8952 55.5274 57.5716 52.8511 57.5716 49.5497V47.1586C57.5716 46.4983 57.0363 45.963 56.376 45.963C55.7157 45.963 55.1805 46.4983 55.1805 47.1586V49.5497C55.1805 51.5305 53.5747 53.1363 51.5938 53.1363L40.1336 53.1363L41.6793 51.5906C42.1462 51.1237 42.1462 50.3667 41.6793 49.8998C41.2124 49.4329 40.4554 49.4329 39.9886 49.8998L36.4022 53.4861" fill="#623BE4"/>
<path d="M36.1425 53.8742C36.2004 53.7342 36.286 53.603 36.3994 53.489Z" fill="#623BE4"/>
<defs>
<filter id="filter0_dd" x="0.107866" y="0.454546" width="93.4078" height="93.4078" filterUnits="userSpaceOnUse" color-interpolation-filters="sRGB">
<feFlood flood-opacity="0" result="BackgroundImageFix"/>
<feColorMatrix in="SourceAlpha" type="matrix" values="0 0 0 0 0 0 0 0 0 0 0 0 0 0 0 0 0 0 127 0" result="hardAlpha"/>
<feOffset dx="6.27273" dy="6.27273"/>
<feGaussianBlur stdDeviation="3.13636"/>
<feColorMatrix type="matrix" values="0 0 0 0 0.674748 0 0 0 0 0.6763 0 0 0 0 0.679405 0 0 0 1 0"/>
<feBlend mode="normal" in2="BackgroundImageFix" result="effect1_dropShadow"/>
<feColorMatrix in="SourceAlpha" type="matrix" values="0 0 0 0 0 0 0 0 0 0 0 0 0 0 0 0 0 0 127 0" result="hardAlpha"/>
<feOffset dx="-6.27273" dy="-6.27273"/>
<feGaussianBlur stdDeviation="3.13636"/>
<feColorMatrix type="matrix" values="0 0 0 0 0.904482 0 0 0 0 0.887893 0 0 0 0 0.921071 0 0 0 1 0"/>
<feBlend mode="normal" in2="effect1_dropShadow" result="effect2_dropShadow"/>
<feBlend mode="normal" in="SourceGraphic" in2="effect2_dropShadow" result="shape"/>
</filter>
</defs>
</svg>
