<svg width="94" height="94" viewBox="0 0 94 94" fill="none" xmlns="http://www.w3.org/2000/svg">
<g filter="url(#filter0_dd)">
<rect x="12.98" y="13" width="68.3168" height="68.3168" rx="12.0511" fill="#F0F1F5"/>
</g>
<path d="M58.474 56.3339L51.8411 44.9632V38.8236H53.1391C53.4834 38.8236 53.8135 38.6868 54.057 38.4434C54.3004 38.2 54.4371 37.8698 54.4371 37.5256C54.4371 37.1813 54.3004 36.8511 54.057 36.6077C53.8135 36.3643 53.4834 36.2275 53.1391 36.2275H42.755C42.4107 36.2275 42.0806 36.3643 41.8371 36.6077C41.5937 36.8511 41.4569 37.1813 41.4569 37.5256C41.4569 37.8698 41.5937 38.2 41.8371 38.4434C42.0806 38.6868 42.4107 38.8236 42.755 38.8236H44.053V44.9632L37.4201 56.3339C37.0755 56.9254 36.893 57.5973 36.8909 58.2819C36.8888 58.9664 37.0672 59.6395 37.4081 60.2331C37.749 60.8268 38.2404 61.32 38.8327 61.6632C39.4251 62.0064 40.0974 62.1874 40.782 62.1879H55.0602C55.7448 62.1874 56.4171 62.0064 57.0094 61.6632C57.6018 61.32 58.0932 60.8268 58.4341 60.2331C58.775 59.6395 58.9534 58.9664 58.9513 58.2819C58.9492 57.5973 58.7666 56.9254 58.4221 56.3339H58.474ZM46.4673 45.9497C46.5818 45.7569 46.6444 45.5378 46.649 45.3137V38.8236H49.2451V45.3137C49.2474 45.5422 49.3101 45.7661 49.4268 45.9627L50.5431 47.9097H45.351L46.4673 45.9497ZM56.2284 58.9299C56.1151 59.1261 55.9525 59.2892 55.7567 59.4031C55.5609 59.5169 55.3386 59.5775 55.1121 59.5789H40.8339C40.6074 59.5775 40.3852 59.5169 40.1893 59.4031C39.9935 59.2892 39.8309 59.1261 39.7176 58.9299C39.6037 58.7326 39.5437 58.5087 39.5437 58.2809C39.5437 58.053 39.6037 57.8292 39.7176 57.6319L43.8323 50.5058H52.0747L56.2284 57.6449C56.3423 57.8422 56.4023 58.066 56.4023 58.2939C56.4023 58.5217 56.3423 58.7456 56.2284 58.9429V58.9299ZM45.351 53.1018C45.0943 53.1018 44.8433 53.1779 44.6299 53.3206C44.4164 53.4632 44.25 53.6659 44.1518 53.9031C44.0535 54.1403 44.0278 54.4013 44.0779 54.653C44.128 54.9048 44.2516 55.1361 44.4332 55.3177C44.6147 55.4992 44.846 55.6228 45.0978 55.6729C45.3496 55.723 45.6106 55.6973 45.8477 55.599C46.0849 55.5008 46.2876 55.3344 46.4303 55.121C46.5729 54.9075 46.649 54.6565 46.649 54.3998C46.649 54.0556 46.5123 53.7254 46.2688 53.482C46.0254 53.2386 45.6953 53.1018 45.351 53.1018ZM50.5431 54.3998C50.2864 54.3998 50.0354 54.4759 49.8219 54.6186C49.6085 54.7612 49.4421 54.9639 49.3439 55.2011C49.2456 55.4383 49.2199 55.6993 49.27 55.9511C49.3201 56.2029 49.4437 56.4341 49.6252 56.6157C49.8068 56.7972 50.0381 56.9208 50.2899 56.9709C50.5416 57.021 50.8026 56.9953 51.0398 56.897C51.277 56.7988 51.4797 56.6324 51.6223 56.419C51.765 56.2055 51.8411 55.9546 51.8411 55.6978C51.8411 55.3536 51.7043 55.0234 51.4609 54.78C51.2175 54.5366 50.8873 54.3998 50.5431 54.3998Z" fill="#623BE4"/>
<defs>
<filter id="filter0_dd" x="0.434526" y="0.454546" width="93.4078" height="93.4078" filterUnits="userSpaceOnUse" color-interpolation-filters="sRGB">
<feFlood flood-opacity="0" result="BackgroundImageFix"/>
<feColorMatrix in="SourceAlpha" type="matrix" values="0 0 0 0 0 0 0 0 0 0 0 0 0 0 0 0 0 0 127 0" result="hardAlpha"/>
<feOffset dx="6.27273" dy="6.27273"/>
<feGaussianBlur stdDeviation="3.13636"/>
<feColorMatrix type="matrix" values="0 0 0 0 0.674748 0 0 0 0 0.6763 0 0 0 0 0.679405 0 0 0 1 0"/>
<feBlend mode="normal" in2="BackgroundImageFix" result="effect1_dropShadow"/>
<feColorMatrix in="SourceAlpha" type="matrix" values="0 0 0 0 0 0 0 0 0 0 0 0 0 0 0 0 0 0 127 0" result="hardAlpha"/>
<feOffset dx="-6.27273" dy="-6.27273"/>
<feGaussianBlur stdDeviation="3.13636"/>
<feColorMatrix type="matrix" values="0 0 0 0 0.904482 0 0 0 0 0.887893 0 0 0 0 0.921071 0 0 0 1 0"/>
<feBlend mode="normal" in2="effect1_dropShadow" result="effect2_dropShadow"/>
<feBlend mode="normal" in="SourceGraphic" in2="effect2_dropShadow" result="shape"/>
</filter>
</defs>
</svg>
