<svg width="138" height="138" viewBox="0 0 138 138" fill="none" xmlns="http://www.w3.org/2000/svg">
<g filter="url(#filter0_dd)">
<rect x="19" y="19" width="100" height="100" rx="17.64" fill="#F0F1F5"/>
</g>
<path d="M86.7852 69.8592L86.8059 69.8387C86.8375 69.8031 86.8659 69.7647 86.8906 69.7241C86.901 69.7138 86.901 69.7036 86.9113 69.6933C86.932 69.6524 86.9651 69.6094 86.9858 69.5684C86.9869 69.5607 86.9906 69.5535 86.9961 69.548C87.0168 69.507 87.0375 69.464 87.0602 69.4128C87.0602 69.4026 87.0602 69.4026 87.0706 69.3924C87.0912 69.3514 87.1016 69.2982 87.1243 69.247C87.1243 69.2367 87.1243 69.2265 87.1347 69.2265C87.15 69.1792 87.1604 69.1305 87.1657 69.0811C87.1638 69.0628 87.1674 69.0443 87.176 69.0279C87.1864 68.987 87.1864 68.944 87.1967 68.903C87.2107 68.7853 87.2107 68.6665 87.1967 68.5488C87.1949 68.5065 87.188 68.4645 87.176 68.4239C87.1779 68.4055 87.1743 68.387 87.1657 68.3707C87.1553 68.3174 87.145 68.2765 87.1347 68.2253C87.1347 68.215 87.1347 68.2048 87.1243 68.2048C87.1111 68.1548 87.0931 68.1061 87.0706 68.0594C87.0706 68.0492 87.0706 68.0492 87.0602 68.039C87.0395 67.998 87.0189 67.9448 86.9961 67.9038C86.9949 67.8961 86.9913 67.8889 86.9858 67.8834C86.9649 67.8395 86.94 67.7977 86.9113 67.7585C86.901 67.7482 86.901 67.738 86.8906 67.7277C86.8649 67.6877 86.8366 67.6494 86.8059 67.6131L86.7852 67.5926C86.7462 67.5429 86.7041 67.4957 86.659 67.4513L76.224 57.1237C75.8816 56.7985 75.4241 56.619 74.9496 56.6239C74.4752 56.6287 74.0215 56.8175 73.686 57.1497C73.3504 57.4819 73.1598 57.9311 73.1549 58.4009C73.15 58.8707 73.3312 59.3236 73.6597 59.6626L81.0031 66.9333H51.8095C51.3296 66.9333 50.8693 67.1221 50.53 67.458C50.1906 67.794 50 68.2497 50 68.7249C50 69.2 50.1906 69.6557 50.53 69.9917C50.8693 70.3277 51.3296 70.5164 51.8095 70.5164H81.0135L73.7218 77.7359C73.5534 77.902 73.4197 78.0992 73.3283 78.3164C73.2369 78.5336 73.1896 78.7665 73.1892 79.0018C73.1882 79.4769 73.3779 79.933 73.7166 80.2697C73.8843 80.4364 74.0835 80.5688 74.3029 80.6593C74.5222 80.7497 74.7575 80.7966 74.9951 80.797C75.475 80.798 75.9357 80.6102 76.2757 80.2748L86.6466 70.0066C86.7004 69.9431 86.7418 69.9083 86.7852 69.8592Z" fill="#623BE4"/>
<defs>
<filter id="filter0_dd" x="0.636364" y="0.636364" width="136.727" height="136.727" filterUnits="userSpaceOnUse" color-interpolation-filters="sRGB">
<feFlood flood-opacity="0" result="BackgroundImageFix"/>
<feColorMatrix in="SourceAlpha" type="matrix" values="0 0 0 0 0 0 0 0 0 0 0 0 0 0 0 0 0 0 127 0" result="hardAlpha"/>
<feOffset dx="9.18182" dy="9.18182"/>
<feGaussianBlur stdDeviation="4.59091"/>
<feColorMatrix type="matrix" values="0 0 0 0 0.117237 0 0 0 0 0.206015 0 0 0 0 0.383571 0 0 0 1 0"/>
<feBlend mode="normal" in2="BackgroundImageFix" result="effect1_dropShadow"/>
<feColorMatrix in="SourceAlpha" type="matrix" values="0 0 0 0 0 0 0 0 0 0 0 0 0 0 0 0 0 0 127 0" result="hardAlpha"/>
<feOffset dx="-9.18182" dy="-9.18182"/>
<feGaussianBlur stdDeviation="4.59091"/>
<feColorMatrix type="matrix" values="0 0 0 0 0.445577 0 0 0 0 0.425599 0 0 0 0 0.991651 0 0 0 1 0"/>
<feBlend mode="normal" in2="effect1_dropShadow" result="effect2_dropShadow"/>
<feBlend mode="normal" in="SourceGraphic" in2="effect2_dropShadow" result="shape"/>
</filter>
</defs>
</svg>
