<svg width="141" height="141" viewBox="0 0 141 141" fill="none" xmlns="http://www.w3.org/2000/svg">
<g filter="url(#filter0_dd)">
<rect x="20" y="20" width="101" height="101" rx="18.3674" fill="#F0F1F5"/>
</g>
<g filter="url(#filter1_ii)">
<rect x="29.1821" y="29.1818" width="82.6364" height="82.6364" rx="18.3636" fill="#F0F1F5"/>
</g>
<path d="M87.7852 70.8592L87.8059 70.8387C87.8375 70.8031 87.8659 70.7647 87.8906 70.7241C87.901 70.7138 87.901 70.7036 87.9113 70.6933C87.932 70.6524 87.9651 70.6094 87.9858 70.5684C87.9869 70.5607 87.9906 70.5535 87.9961 70.548C88.0168 70.507 88.0375 70.464 88.0602 70.4128C88.0602 70.4026 88.0602 70.4026 88.0706 70.3924C88.0912 70.3514 88.1016 70.2982 88.1243 70.247C88.1243 70.2367 88.1243 70.2265 88.1347 70.2265C88.15 70.1792 88.1604 70.1305 88.1657 70.0811C88.1638 70.0628 88.1674 70.0443 88.176 70.0279C88.1864 69.987 88.1864 69.944 88.1967 69.903C88.2107 69.7853 88.2107 69.6665 88.1967 69.5488C88.1949 69.5065 88.188 69.4645 88.176 69.4239C88.1779 69.4055 88.1743 69.387 88.1657 69.3707C88.1553 69.3174 88.145 69.2765 88.1347 69.2253C88.1347 69.215 88.1347 69.2048 88.1243 69.2048C88.1111 69.1548 88.0931 69.1061 88.0706 69.0594C88.0706 69.0492 88.0706 69.0492 88.0602 69.039C88.0395 68.998 88.0189 68.9448 87.9961 68.9038C87.9949 68.8961 87.9913 68.8889 87.9858 68.8834C87.9649 68.8395 87.94 68.7977 87.9113 68.7585C87.901 68.7482 87.901 68.738 87.8906 68.7277C87.8649 68.6877 87.8366 68.6494 87.8059 68.6131L87.7852 68.5926C87.7462 68.5429 87.7041 68.4957 87.659 68.4513L77.224 58.1237C76.8816 57.7985 76.4241 57.619 75.9496 57.6239C75.4752 57.6287 75.0215 57.8175 74.686 58.1497C74.3504 58.4819 74.1598 58.9311 74.1549 59.4009C74.15 59.8707 74.3312 60.3236 74.6597 60.6626L82.0031 67.9333H52.8095C52.3296 67.9333 51.8693 68.1221 51.53 68.458C51.1906 68.794 51 69.2497 51 69.7249C51 70.2 51.1906 70.6557 51.53 70.9917C51.8693 71.3277 52.3296 71.5164 52.8095 71.5164H82.0135L74.7218 78.7359C74.5534 78.902 74.4197 79.0992 74.3283 79.3164C74.2369 79.5336 74.1896 79.7665 74.1892 80.0018C74.1882 80.4769 74.3779 80.933 74.7166 81.2697C74.8843 81.4364 75.0835 81.5688 75.3029 81.6593C75.5222 81.7497 75.7575 81.7966 75.9951 81.797C76.475 81.798 76.9357 81.6102 77.2757 81.2748L87.6466 71.0066C87.7004 70.9431 87.7418 70.9083 87.7852 70.8592Z" fill="#623BE4"/>
<defs>
<filter id="filter0_dd" x="0.879101" y="0.879101" width="139.242" height="139.242" filterUnits="userSpaceOnUse" color-interpolation-filters="sRGB">
<feFlood flood-opacity="0" result="BackgroundImageFix"/>
<feColorMatrix in="SourceAlpha" type="matrix" values="0 0 0 0 0 0 0 0 0 0 0 0 0 0 0 0 0 0 127 0" result="hardAlpha"/>
<feOffset dx="9.56045" dy="9.56045"/>
<feGaussianBlur stdDeviation="4.78022"/>
<feColorMatrix type="matrix" values="0 0 0 0 0.117237 0 0 0 0 0.206015 0 0 0 0 0.383571 0 0 0 1 0"/>
<feBlend mode="normal" in2="BackgroundImageFix" result="effect1_dropShadow"/>
<feColorMatrix in="SourceAlpha" type="matrix" values="0 0 0 0 0 0 0 0 0 0 0 0 0 0 0 0 0 0 127 0" result="hardAlpha"/>
<feOffset dx="-9.56045" dy="-9.56045"/>
<feGaussianBlur stdDeviation="4.78022"/>
<feColorMatrix type="matrix" values="0 0 0 0 0.445577 0 0 0 0 0.425599 0 0 0 0 0.991651 0 0 0 1 0"/>
<feBlend mode="normal" in2="effect1_dropShadow" result="effect2_dropShadow"/>
<feBlend mode="normal" in="SourceGraphic" in2="effect2_dropShadow" result="shape"/>
</filter>
<filter id="filter1_ii" x="20.0003" y="19.9999" width="101" height="101" filterUnits="userSpaceOnUse" color-interpolation-filters="sRGB">
<feFlood flood-opacity="0" result="BackgroundImageFix"/>
<feBlend mode="normal" in="SourceGraphic" in2="BackgroundImageFix" result="shape"/>
<feColorMatrix in="SourceAlpha" type="matrix" values="0 0 0 0 0 0 0 0 0 0 0 0 0 0 0 0 0 0 127 0" result="hardAlpha"/>
<feOffset dx="9.18182" dy="9.18182"/>
<feGaussianBlur stdDeviation="4.59091"/>
<feComposite in2="hardAlpha" operator="arithmetic" k2="-1" k3="1"/>
<feColorMatrix type="matrix" values="0 0 0 0 0.821071 0 0 0 0 0.812022 0 0 0 0 0.812022 0 0 0 1 0"/>
<feBlend mode="normal" in2="shape" result="effect1_innerShadow"/>
<feColorMatrix in="SourceAlpha" type="matrix" values="0 0 0 0 0 0 0 0 0 0 0 0 0 0 0 0 0 0 127 0" result="hardAlpha"/>
<feOffset dx="-9.18182" dy="-9.18182"/>
<feGaussianBlur stdDeviation="4.59091"/>
<feComposite in2="hardAlpha" operator="arithmetic" k2="-1" k3="1"/>
<feColorMatrix type="matrix" values="0 0 0 0 1 0 0 0 0 1 0 0 0 0 1 0 0 0 0.5 0"/>
<feBlend mode="normal" in2="effect1_innerShadow" result="effect2_innerShadow"/>
</filter>
</defs>
</svg>
