<svg width="95" height="95" viewBox="0 0 95 95" fill="none" xmlns="http://www.w3.org/2000/svg">
<g filter="url(#filter0_dd)">
<rect x="13" y="13" width="69" height="69" rx="12.0511" fill="#F0F1F5"/>
</g>
<g filter="url(#filter1_ii)">
<rect x="19.2729" y="19.2725" width="56.4545" height="56.4545" rx="12.5455" fill="#F0F1F5"/>
</g>
<path d="M47.0474 36.1882C47.5004 35.7856 48.183 35.7856 48.636 36.1882L59.3959 45.7526C59.8894 46.1912 59.9338 46.9469 59.4952 47.4404C59.0565 47.9339 58.3008 47.9784 57.8073 47.5397L57.406 47.183V56.2105C57.406 57.5311 56.3355 58.6016 55.015 58.6016H40.6684C39.3479 58.6016 38.2773 57.531 38.2773 56.2105V47.183L37.8761 47.5397C37.3826 47.9784 36.6269 47.9339 36.1882 47.4404C35.7496 46.9469 35.794 46.1912 36.2875 45.7526L47.0474 36.1882ZM40.6684 45.0576V56.2105H44.2551V50.2328C44.2551 49.5725 44.7903 49.0372 45.4506 49.0372H50.2328C50.8931 49.0372 51.4283 49.5725 51.4283 50.2328V56.2105H55.015V45.0576L47.8417 38.6814L40.6684 45.0576ZM49.0372 56.2105V51.4283H46.6461V56.2105H49.0372Z" fill="#623BE4"/>
<defs>
<filter id="filter0_dd" x="0.454546" y="0.454546" width="94.0909" height="94.0909" filterUnits="userSpaceOnUse" color-interpolation-filters="sRGB">
<feFlood flood-opacity="0" result="BackgroundImageFix"/>
<feColorMatrix in="SourceAlpha" type="matrix" values="0 0 0 0 0 0 0 0 0 0 0 0 0 0 0 0 0 0 127 0" result="hardAlpha"/>
<feOffset dx="6.27273" dy="6.27273"/>
<feGaussianBlur stdDeviation="3.13636"/>
<feColorMatrix type="matrix" values="0 0 0 0 0.674748 0 0 0 0 0.6763 0 0 0 0 0.679405 0 0 0 1 0"/>
<feBlend mode="normal" in2="BackgroundImageFix" result="effect1_dropShadow"/>
<feColorMatrix in="SourceAlpha" type="matrix" values="0 0 0 0 0 0 0 0 0 0 0 0 0 0 0 0 0 0 127 0" result="hardAlpha"/>
<feOffset dx="-6.27273" dy="-6.27273"/>
<feGaussianBlur stdDeviation="3.13636"/>
<feColorMatrix type="matrix" values="0 0 0 0 0.905882 0 0 0 0 0.886275 0 0 0 0 0.921569 0 0 0 1 0"/>
<feBlend mode="normal" in2="effect1_dropShadow" result="effect2_dropShadow"/>
<feBlend mode="normal" in="SourceGraphic" in2="effect2_dropShadow" result="shape"/>
</filter>
<filter id="filter1_ii" x="13.0002" y="12.9997" width="69" height="69" filterUnits="userSpaceOnUse" color-interpolation-filters="sRGB">
<feFlood flood-opacity="0" result="BackgroundImageFix"/>
<feBlend mode="normal" in="SourceGraphic" in2="BackgroundImageFix" result="shape"/>
<feColorMatrix in="SourceAlpha" type="matrix" values="0 0 0 0 0 0 0 0 0 0 0 0 0 0 0 0 0 0 127 0" result="hardAlpha"/>
<feOffset dx="6.27273" dy="6.27273"/>
<feGaussianBlur stdDeviation="3.13636"/>
<feComposite in2="hardAlpha" operator="arithmetic" k2="-1" k3="1"/>
<feColorMatrix type="matrix" values="0 0 0 0 0.821071 0 0 0 0 0.812022 0 0 0 0 0.812022 0 0 0 1 0"/>
<feBlend mode="normal" in2="shape" result="effect1_innerShadow"/>
<feColorMatrix in="SourceAlpha" type="matrix" values="0 0 0 0 0 0 0 0 0 0 0 0 0 0 0 0 0 0 127 0" result="hardAlpha"/>
<feOffset dx="-6.27273" dy="-6.27273"/>
<feGaussianBlur stdDeviation="3.13636"/>
<feComposite in2="hardAlpha" operator="arithmetic" k2="-1" k3="1"/>
<feColorMatrix type="matrix" values="0 0 0 0 1 0 0 0 0 1 0 0 0 0 1 0 0 0 0.5 0"/>
<feBlend mode="normal" in2="effect1_innerShadow" result="effect2_innerShadow"/>
</filter>
</defs>
</svg>
